<mxfile host="app.diagrams.net" modified="2024-02-05T19:00:55.413Z" agent="Mozilla/5.0 (Windows NT 10.0; Win64; x64) AppleWebKit/537.36 (KHTML, like Gecko) Chrome/121.0.0.0 Safari/537.36 Edg/121.0.0.0" etag="ZvZ1KM3PNJ6BV9camNhq" version="23.1.1" type="device">
  <diagram name="Page-1" id="lMuPRmGWWhECffE9Og_i">
    <mxGraphModel dx="1106" dy="579" grid="1" gridSize="10" guides="1" tooltips="1" connect="1" arrows="1" fold="1" page="1" pageScale="1" pageWidth="827" pageHeight="1169" background="#000000" math="0" shadow="0">
      <root>
        <mxCell id="0" />
        <mxCell id="1" parent="0" />
        <mxCell id="gCONbDK87JYv5U0t19UN-1" value="Admin" style="shape=umlActor;verticalLabelPosition=bottom;verticalAlign=top;html=1;outlineConnect=0;fontColor=#FFFFFF;strokeColor=#FFFFFF;labelBackgroundColor=none;fillColor=#182E3E;" vertex="1" parent="1">
          <mxGeometry x="70" y="230" width="30" height="60" as="geometry" />
        </mxCell>
        <mxCell id="gCONbDK87JYv5U0t19UN-3" value="Manage users" style="ellipse;whiteSpace=wrap;html=1;fillColor=#182E3E;strokeColor=#FFFFFF;fontColor=#FFFFFF;labelBackgroundColor=none;" vertex="1" parent="1">
          <mxGeometry x="220" y="160" width="120" height="80" as="geometry" />
        </mxCell>
        <mxCell id="gCONbDK87JYv5U0t19UN-4" value="Manage system" style="ellipse;whiteSpace=wrap;html=1;strokeColor=#FFFFFF;fillColor=#182E3E;fontColor=#FFFFFF;labelBackgroundColor=none;" vertex="1" parent="1">
          <mxGeometry x="220" y="270" width="120" height="80" as="geometry" />
        </mxCell>
        <mxCell id="gCONbDK87JYv5U0t19UN-8" value="" style="endArrow=classic;html=1;rounded=0;entryX=0;entryY=0.5;entryDx=0;entryDy=0;exitX=0.5;exitY=0.5;exitDx=0;exitDy=0;exitPerimeter=0;strokeColor=#23445D;labelBackgroundColor=none;fontColor=default;" edge="1" parent="1" source="gCONbDK87JYv5U0t19UN-1" target="gCONbDK87JYv5U0t19UN-3">
          <mxGeometry width="50" height="50" relative="1" as="geometry">
            <mxPoint x="100" y="270" as="sourcePoint" />
            <mxPoint x="150" y="220" as="targetPoint" />
          </mxGeometry>
        </mxCell>
        <mxCell id="gCONbDK87JYv5U0t19UN-9" value="" style="endArrow=classic;html=1;rounded=0;exitX=0.5;exitY=0.5;exitDx=0;exitDy=0;exitPerimeter=0;entryX=0;entryY=0.5;entryDx=0;entryDy=0;strokeColor=#23445D;labelBackgroundColor=none;fontColor=default;" edge="1" parent="1" source="gCONbDK87JYv5U0t19UN-1" target="gCONbDK87JYv5U0t19UN-4">
          <mxGeometry width="50" height="50" relative="1" as="geometry">
            <mxPoint x="370" y="400" as="sourcePoint" />
            <mxPoint x="420" y="350" as="targetPoint" />
          </mxGeometry>
        </mxCell>
        <mxCell id="gCONbDK87JYv5U0t19UN-10" value="User" style="shape=umlActor;verticalLabelPosition=bottom;verticalAlign=top;html=1;outlineConnect=0;labelBorderColor=#FFFFFF;fontColor=#FFFFFF;strokeColor=#FFFFFF;labelBackgroundColor=none;fillColor=#182E3E;" vertex="1" parent="1">
          <mxGeometry x="740" y="230" width="30" height="60" as="geometry" />
        </mxCell>
        <mxCell id="gCONbDK87JYv5U0t19UN-19" value="" style="swimlane;startSize=0;strokeColor=#FFFFFF;strokeWidth=3;labelBackgroundColor=none;fillColor=#182E3E;fontColor=#FFFFFF;" vertex="1" parent="1">
          <mxGeometry x="400" y="10" width="240" height="500" as="geometry">
            <mxRectangle x="400" y="10" width="50" height="40" as="alternateBounds" />
          </mxGeometry>
        </mxCell>
        <mxCell id="gCONbDK87JYv5U0t19UN-15" value="Add-Edit products" style="ellipse;whiteSpace=wrap;html=1;fontColor=#FFFFFF;fillColor=#182E3E;strokeColor=#FFFFFF;labelBackgroundColor=none;" vertex="1" parent="gCONbDK87JYv5U0t19UN-19">
          <mxGeometry x="40" y="40" width="160" height="80" as="geometry" />
        </mxCell>
        <mxCell id="gCONbDK87JYv5U0t19UN-17" value="Move products over warehouse" style="ellipse;whiteSpace=wrap;html=1;fontColor=#FFFFFF;strokeColor=#FFFFFF;fillColor=#182E3E;labelBackgroundColor=none;" vertex="1" parent="gCONbDK87JYv5U0t19UN-19">
          <mxGeometry x="40" y="130" width="160" height="80" as="geometry" />
        </mxCell>
        <mxCell id="gCONbDK87JYv5U0t19UN-20" value="Working process" style="text;html=1;align=center;verticalAlign=middle;resizable=0;points=[];autosize=1;strokeColor=none;fillColor=none;fontColor=#FFFFFF;labelBackgroundColor=none;" vertex="1" parent="gCONbDK87JYv5U0t19UN-19">
          <mxGeometry x="65" y="10" width="110" height="30" as="geometry" />
        </mxCell>
        <mxCell id="gCONbDK87JYv5U0t19UN-16" value="Manage receipts" style="ellipse;whiteSpace=wrap;html=1;fontColor=#FFFFFF;strokeColor=#FFFFFF;fillColor=#182E3E;labelBackgroundColor=none;" vertex="1" parent="gCONbDK87JYv5U0t19UN-19">
          <mxGeometry x="40" y="220" width="160" height="80" as="geometry" />
        </mxCell>
        <mxCell id="gCONbDK87JYv5U0t19UN-21" value="Manage shipments" style="ellipse;whiteSpace=wrap;html=1;fontColor=#FFFFFF;strokeColor=#FFFFFF;fillColor=#182E3E;labelBackgroundColor=none;" vertex="1" parent="gCONbDK87JYv5U0t19UN-19">
          <mxGeometry x="40" y="310" width="160" height="80" as="geometry" />
        </mxCell>
        <mxCell id="gCONbDK87JYv5U0t19UN-22" value="Generate reports" style="ellipse;whiteSpace=wrap;html=1;fontColor=#FFFFFF;strokeColor=#FFFFFF;fillColor=#182E3E;labelBackgroundColor=none;" vertex="1" parent="gCONbDK87JYv5U0t19UN-19">
          <mxGeometry x="40" y="400" width="160" height="80" as="geometry" />
        </mxCell>
        <mxCell id="gCONbDK87JYv5U0t19UN-23" value="" style="endArrow=classic;html=1;rounded=0;exitX=0.5;exitY=0.5;exitDx=0;exitDy=0;exitPerimeter=0;entryX=1;entryY=0.5;entryDx=0;entryDy=0;strokeColor=#23445D;labelBackgroundColor=none;fontColor=default;" edge="1" parent="1" source="gCONbDK87JYv5U0t19UN-10" target="gCONbDK87JYv5U0t19UN-15">
          <mxGeometry width="50" height="50" relative="1" as="geometry">
            <mxPoint x="390" y="330" as="sourcePoint" />
            <mxPoint x="440" y="280" as="targetPoint" />
          </mxGeometry>
        </mxCell>
        <mxCell id="gCONbDK87JYv5U0t19UN-24" value="" style="endArrow=classic;html=1;rounded=0;exitX=0.5;exitY=0.5;exitDx=0;exitDy=0;exitPerimeter=0;entryX=1;entryY=0.5;entryDx=0;entryDy=0;strokeColor=#23445D;labelBackgroundColor=none;fontColor=default;" edge="1" parent="1" source="gCONbDK87JYv5U0t19UN-10" target="gCONbDK87JYv5U0t19UN-17">
          <mxGeometry width="50" height="50" relative="1" as="geometry">
            <mxPoint x="390" y="330" as="sourcePoint" />
            <mxPoint x="440" y="280" as="targetPoint" />
          </mxGeometry>
        </mxCell>
        <mxCell id="gCONbDK87JYv5U0t19UN-25" value="" style="endArrow=classic;html=1;rounded=0;exitX=0.5;exitY=0.5;exitDx=0;exitDy=0;exitPerimeter=0;entryX=1;entryY=0.5;entryDx=0;entryDy=0;strokeColor=#23445D;labelBackgroundColor=none;fontColor=default;" edge="1" parent="1" source="gCONbDK87JYv5U0t19UN-10" target="gCONbDK87JYv5U0t19UN-16">
          <mxGeometry width="50" height="50" relative="1" as="geometry">
            <mxPoint x="390" y="330" as="sourcePoint" />
            <mxPoint x="440" y="280" as="targetPoint" />
          </mxGeometry>
        </mxCell>
        <mxCell id="gCONbDK87JYv5U0t19UN-26" value="" style="endArrow=classic;html=1;rounded=0;entryX=1;entryY=0.5;entryDx=0;entryDy=0;strokeColor=#23445D;labelBackgroundColor=none;fontColor=default;" edge="1" parent="1" target="gCONbDK87JYv5U0t19UN-21">
          <mxGeometry width="50" height="50" relative="1" as="geometry">
            <mxPoint x="750" y="260" as="sourcePoint" />
            <mxPoint x="440" y="280" as="targetPoint" />
            <Array as="points">
              <mxPoint x="680" y="310" />
            </Array>
          </mxGeometry>
        </mxCell>
        <mxCell id="gCONbDK87JYv5U0t19UN-27" value="" style="endArrow=classic;html=1;rounded=0;exitX=0.5;exitY=0.5;exitDx=0;exitDy=0;exitPerimeter=0;entryX=1;entryY=0.5;entryDx=0;entryDy=0;strokeColor=#23445D;labelBackgroundColor=none;fontColor=default;" edge="1" parent="1" source="gCONbDK87JYv5U0t19UN-10" target="gCONbDK87JYv5U0t19UN-22">
          <mxGeometry width="50" height="50" relative="1" as="geometry">
            <mxPoint x="390" y="330" as="sourcePoint" />
            <mxPoint x="440" y="280" as="targetPoint" />
          </mxGeometry>
        </mxCell>
      </root>
    </mxGraphModel>
  </diagram>
</mxfile>
